<svg width="492" height="314" viewBox="0 0 492 314" fill="none" xmlns="http://www.w3.org/2000/svg">
<path d="M131.663 240.187C131.663 240.187 123.543 207.417 123.543 166.167M99.4375 100.167C80.808 119.677 45.8976 170.292 24.3294 150.125M99.4375 100.167C110.397 83.6946 103.671 77.2549 123.543 84.125C147.307 92.3406 168.928 122.53 161.097 144.396C153.429 165.807 123.543 166.167 123.543 166.167M99.4375 100.167C107.665 128.933 115.315 137.4 123.543 166.167M2 234C52.2412 270.667 87.9655 189.665 123.543 166.167M123.543 166.167C125.157 187.374 149.679 225.75 170.486 216.125C191.293 206.5 176.829 173.828 175.053 166.167C173.277 158.505 188.958 210.014 206.263 201.688C222.519 193.866 201.696 159.292 201.696 159.292C201.696 159.292 228.847 192.063 234.683 187.479C240.519 182.896 234.683 144.396 234.683 144.396C234.683 144.396 296.342 251.646 289.999 270.667C283.655 289.687 252.952 312.375 234.683 295.875C216.413 279.375 246.548 144.066 270.461 135.229M270.461 135.229C288.209 121.443 328.34 152.251 316.134 170.292C309.078 180.721 295.685 189.664 284.416 182.896C275.54 177.564 272.64 167.659 277.439 159.063M270.461 135.229C264.624 150.125 270.461 154.021 277.439 159.063M277.439 159.063C294.037 139.821 344.612 99.8682 319.941 109.792C309.618 113.944 300.836 115.552 296.342 124.917C287.671 142.989 353.8 125.447 347.852 144.396C344.496 155.09 312.351 187.161 323.747 162.729C335.142 138.297 341.532 124.599 352.927 100.167M352.927 100.167C365.116 93.902 370.312 82.0025 384.138 84.125C398.359 86.3083 404.631 97.0684 407.736 109.792C412.992 131.334 368.835 154.021 368.835 154.021M352.927 100.167C358.947 120.545 368.341 152.348 368.341 152.348M394.287 240.187L368.835 154.021M368.835 154.021L368.341 152.348M368.341 152.348C368.341 152.348 378.018 3 394.287 3C410.557 3 417.378 119.188 417.378 119.188C417.378 119.188 407.489 72.4135 428.797 70.8333C447.197 69.4686 438.946 88.0208 458.485 104.063C478.023 120.104 509.994 107.729 469.395 113.458C428.797 119.188 87.2578 311 87.2578 311" stroke="black" stroke-width="5"/>
</svg>
